PathFileType	4	(X/Y/Z)	Patient3_R_AnkleIso_Processed.trc
DataRate	CameraRate	NumFrames	NumMarkers	Units	OrigDataRate	OrigDataStartFrame	OrigNumFrames
100.000000000000	100.000000000000	7	33	mm	100.000000000000	151	       301
Frame#	Time	L.Toe			R.Toe			R.Shoulder			L.Heel			Neck			R.Heel			L.Shank.Lateral			R.Shank.Lateral			L.Midfoot.Superior			L.Elbow			R.Midfoot.Lateral			R.Midfoot.Superior			L.Shoulder			R.Thigh.Lateral			R.Elbow			Sacral			L.Thigh.Superior			R.Patella			R.Wrist			R.Shank.Superior			L.Wrist			R.Shank.Inferior			R.Thigh.Superior			R.Thigh.Inferior			L.Asis			L.Shank.Inferior			L.Midfoot.Lateral			Sternum			L.Shank.Superior			R.Asis			L.Patella			L.Thigh.Lateral			L.Thigh.Inferior			
		X1	Y1	Z1	X2	Y2	Z2	X3	Y3	Z3	X4	Y4	Z4	X5	Y5	Z5	X6	Y6	Z6	X7	Y7	Z7	X8	Y8	Z8	X9	Y9	Z9	X10	Y10	Z10	X11	Y11	Z11	X12	Y12	Z12	X13	Y13	Z13	X14	Y14	Z14	X15	Y15	Z15	X16	Y16	Z16	X17	Y17	Z17	X18	Y18	Z18	X19	Y19	Z19	X20	Y20	Z20	X21	Y21	Z21	X22	Y22	Z22	X23	Y23	Z23	X24	Y24	Z24	X25	Y25	Z25	X26	Y26	Z26	X27	Y27	Z27	X28	Y28	Z28	X29	Y29	Z29	X30	Y30	Z30	X31	Y31	Z31	X32	Y32	Z32	X33	Y33	Z33	

151	2.000000000000	705.485603369376	42.871852312600	376.725522305774	1097.103409288956	326.428777361163	564.222151276331	452.554767514230	1447.786729573615	509.112539154836	414.860991219492	33.048211072267	427.156195706495	423.698633700963	1467.047089326075	359.780446922997	903.410929695543	108.289543233315	623.606134639651	476.455425008726	325.456268006363	294.746530288590	769.785053094220	436.895154033574	665.871739661377	585.976873469036	89.946037645199	390.218395805193	367.374140467855	1114.058773480355	95.975685084127	981.875005505789	170.560374322858	658.137484722954	983.559172052991	269.776891803355	598.331293233566	472.292548720054	1429.083654087432	218.656981515124	640.782836172432	728.878701816695	622.494723801616	535.591538620639	1141.612641492236	657.688642114905	404.221040964632	970.240324944615	384.747453631559	652.338294851169	739.670912975408	301.705029576069	783.617144655686	611.028228004160	565.525054176101	634.694436156689	1269.172557871373	466.374132329659	817.994732827322	506.567634148420	600.210658893908	543.943190505958	1000.904531810992	-54.490340894736	888.673049798865	345.958396559912	611.632389681312	690.526285725154	803.978478423691	554.537962087507	735.837859432536	701.203507773270	554.657259988373	600.565508127684	968.436690818555	278.008125299677	547.378229765650	230.564166256316	364.539359631423	490.473140244366	27.171410978800	359.410017075723	563.826998585878	1376.045872149663	379.045299220780	569.236061886216	382.997630138004	332.755127845811	548.178266951053	997.032360523805	533.529540275704	612.165181325917	491.897829732355	344.324358972421	553.909525101675	657.830727131053	258.308380325687	634.094665775658	610.146621903147	321.977622562135	
152	2.010000000000	705.473811885722	42.908220495012	376.727046672221	1097.264481920012	327.337657888087	567.626981668716	452.295378676374	1447.781275893448	509.036135088648	414.856538163998	33.042079142760	427.153335156295	423.469497305333	1467.034492131698	359.689668754909	903.400272850070	108.230147995281	622.894189204156	476.425457302929	325.446710158266	294.705646995703	769.417001122067	436.818660175660	665.840343913969	585.974540817996	89.956488431577	390.208623530957	367.227092425080	1114.028542665232	95.904432981228	980.958576372858	170.766166644438	659.008754462302	983.333782816283	270.160875136278	599.465407318603	472.098318048144	1429.077330197326	218.576004991062	640.455508181970	728.879532910069	622.530582206356	535.394539262334	1141.645982315228	657.642659561444	404.043293303987	970.228667021124	384.628549139156	652.232742878619	739.688034519511	301.718572378086	783.382015562807	611.113748896310	565.686421189964	634.482858744874	1269.226891745670	466.333485396102	817.740199348633	506.598865641740	600.389711680443	543.803238943707	1000.880453715416	-54.559693033636	888.428218050997	346.004938615964	611.768902969490	690.229482668287	804.017950551689	554.654067156860	735.587786696071	701.281004660694	554.786439490454	600.458421959592	968.430806351543	278.028169514422	547.357198499699	230.577670797943	364.547739669170	490.472597149903	27.170173935616	359.409483706236	563.599869674221	1376.061237176157	378.992372519640	569.190950141235	382.989829353373	332.736789178138	547.893318241068	997.043049655720	533.509222926230	612.128600976155	491.909242238250	344.293010970827	553.844386821417	657.833221908120	258.279037666932	633.990479429973	610.162921384103	321.971943342907	
153	2.020000000000	705.461009279080	42.948057073324	376.729036022125	1097.400981367656	328.210069342540	571.099883780500	452.041027000229	1447.776476243344	508.960776583634	414.851257017175	33.035782944854	427.149681424324	423.249541100191	1467.022059864956	359.598660233795	903.390645180897	108.178853796871	622.160749334289	476.406538800283	325.439119777894	294.659969713620	769.039462924176	436.730126211720	665.788197445941	585.970434076881	89.967669684761	390.198923937682	367.084285837110	1113.999543841715	95.837102514844	979.996907847012	170.954886274245	659.872652039000	983.102768206848	270.532066509735	600.607880903693	471.916609526378	1429.070376203426	218.496598750810	640.120785424651	728.874663009237	622.567527944361	535.196601715824	1141.682486040659	657.604325785448	403.869473011827	970.215439612856	384.505470396893	652.137085551980	739.706007319689	301.733622342161	783.145704114368	611.200615298672	565.850361750001	634.274507638005	1269.281463854615	466.300778535095	817.484745715701	506.629126536293	600.568675816212	543.658563737132	1000.850215646833	-54.630127471905	888.185032574965	346.050803655758	611.897954866267	689.927763916167	804.057522850446	554.779830506198	735.334729015932	701.359063103174	554.921261222614	600.361105402725	968.425054990353	278.056985138186	547.342014104112	230.589729668545	364.557856614537	490.472218664105	27.169036586025	359.409068009109	563.378398336026	1376.074996879453	378.944584460035	569.155534530994	382.978379013680	332.718683547318	547.601789060546	997.051633515955	533.494022283468	612.108268834453	491.918785073246	344.260116372482	553.791329196711	657.835112294511	258.251820205978	633.899734533472	610.178591037584	321.965169407134	
154	2.030000000000	705.447360708035	42.991011162274	376.731487105694	1097.508933419683	329.044164246821	574.632421614802	451.791590925700	1447.771934538112	508.886368721305	414.845177885089	33.029426184041	427.145252611739	423.039115904204	1467.009588425299	359.507377947291	903.383575505994	108.134535886090	621.410630908208	476.400799133834	325.433517931054	294.610626262944	768.654426639089	436.630078700512	665.714930357587	585.964621273935	89.979518904235	390.189549063420	366.946627533699	1113.972194271888	95.772581041316	978.991521566883	171.126195108219	660.725976859858	982.865887021038	270.889572750275	601.756044339792	471.748212788577	1429.062534459478	218.418794215004	639.782309456310	728.865589620430	622.604999119046	534.995723470161	1141.721631411275	657.574014351767	403.699612426436	970.199999933820	384.378993890235	652.052481337892	739.725382663734	301.750675101557	782.910067922911	611.288958278731	566.015649425589	634.068552472705	1269.335169812387	466.276711701701	817.230409046101	506.658560185090	600.747048889269	543.510526615982	1000.813426351890	-54.701501334768	887.945061633902	346.096029877596	612.019256183167	689.623360582098	804.097770492357	554.912761494098	735.080692034282	701.438151271247	555.059488490859	600.273185782862	968.419806171922	278.094169449356	547.333761441569	230.600002684019	364.570153094492	490.471980470425	27.167921304092	359.408861926756	563.162442919009	1376.086419165005	378.902231870726	569.131779040844	382.963248157280	332.701840539764	547.304564274058	997.058730703433	533.483547124173	612.106280485310	491.926488733457	344.226702695298	553.751908241673	657.836203601752	258.227557183149	633.824461850929	610.194065927705	321.957881349679	
155	2.040000000000	705.433076951187	43.036568160652	376.734373436504	1097.584940326311	329.838186730234	578.215167272005	451.546995070732	1447.767166705939	508.812863375296	414.838366603831	33.023131986914	427.140093204327	422.838497248164	1466.996833004774	359.415867632226	903.380080196536	108.095785070025	620.649183079240	476.409993496924	325.429835344230	294.558973326022	768.263840949001	436.518956104060	665.620887179013	585.957248453703	89.991949993247	390.180740997124	366.814915594160	1113.946845119069	95.709739003857	977.944835191080	171.279918220193	661.565987800891	982.623196215911	271.232454063633	602.907390725287	471.593724668140	1429.053519134063	218.342651297396	639.443826580224	728.853731346191	622.642660571014	534.789929917248	1141.762665524159	657.551857203669	403.533897061839	970.181778125528	384.250079195645	651.980019685870	739.746625218880	301.770488269094	782.676989087624	611.378687422460	566.181547713411	633.864196302467	1269.386804788804	466.261822965951	816.979097673734	506.687145986401	600.924857640993	543.360579592949	1000.769895032804	-54.773668460511	887.709821125380	346.140511149797	612.133126699580	689.318590307862	804.138994330172	555.050346128597	734.827782387599	701.518523908535	555.199147622830	600.194313715452	968.415411691400	278.139107019515	547.333335067098	230.608223439027	364.585054173350	490.471853759298	27.166755552823	359.408937094695	562.951866804209	1376.094777040052	378.865524165199	569.121321766349	382.944598990336	332.687374678039	547.003015818443	997.064871395110	533.477330790066	612.124114930055	491.932453843701	344.194023579629	553.727538264900	657.836348024729	258.207090636986	633.766342752349	610.209808761349	321.951022157044	
156	2.050000000000	705.418405513931	43.084072774439	376.737649165140	1097.626224920132	330.590280949642	581.837200462674	451.307207779898	1447.761605933499	508.740273654869	414.830923040867	33.017035428014	427.134274270264	422.647869202583	1466.983502239903	359.324282829776	903.380655444681	108.061103283793	619.882394806168	476.435303023262	325.427931518541	294.506493413809	767.869744887401	436.397257554887	665.507289209092	585.948530569114	90.004850238246	390.172714151514	366.689804122704	1113.923745427930	95.647487364986	976.860270681043	171.416098948812	662.390443198888	982.375094362752	271.559677561598	604.059444730034	471.453511799984	1429.043017585769	218.268267709690	639.108954143624	728.840328885998	622.680465811555	534.577388710768	1141.804612681687	657.537740519604	403.372718491971	970.160263304189	384.119827722839	651.920659882347	739.770072674818	301.793934573088	782.448315655085	611.469485854892	566.347840624157	633.660728749648	1269.435098961592	466.256467050420	816.732590420587	506.714731792875	601.102588546299	543.210212942137	1000.719647933552	-54.846479912070	887.480790644277	346.184031331232	612.240483668057	689.015781763981	804.181218158824	555.190350874759	734.578133094856	701.600196225723	555.338757317271	600.124206730954	968.412178883364	278.191006179532	547.341346777312	230.614214934201	364.602886764675	490.471807649245	27.165481428319	359.409336660954	562.746557308964	1376.099377274921	378.834578271869	569.125323696956	382.922775572147	332.676362198808	546.698929132015	997.070455650489	533.474869754701	612.162501525606	491.936836502084	344.163416109486	553.719365565629	657.835461828967	258.191193536946	633.726595646607	610.226248950644	321.945744967839	
157	2.060000000000	705.403617564143	43.132759497056	376.741254232719	1097.630664009455	331.298320165528	585.485934516305	451.072234908053	1447.754611830082	508.668690491693	414.822977466534	33.011274828518	427.127892053811	422.467311171161	1466.969257242486	359.232901555141	903.385250008391	108.029061258174	619.116898508671	476.477181909497	325.427616294861	294.454697868445	767.474406967801	436.265699949575	665.376336150661	585.938739733000	90.018079195648	390.165640250602	366.571774091361	1113.903014642040	95.584836673238	975.742198593744	171.535030986996	663.197666788442	982.122317615360	271.870067539495	605.209689307777	471.327680033129	1429.030699008953	218.195787859125	638.781000055813	728.826378287478	622.718667015057	534.356535546595	1141.846295428637	657.531312739486	403.216712109272	970.134989533792	383.989434838681	651.875165061129	739.795907409365	301.821862961168	782.225823532047	611.560816621837	566.514763038224	633.457577680546	1269.478756753074	466.260797421204	816.492553227893	506.741064898374	601.281049050640	543.060902007415	1000.662939134739	-54.919781389992	887.259413643634	346.226285875789	612.342759577911	688.717233924499	804.224218995685	555.331052143822	734.333846294272	701.682938020194	555.477451887815	600.062685631419	968.410346382186	278.248954181851	547.358057863635	230.617899799195	364.623815438221	490.471811366263	27.164062946763	359.410069951091	562.546441567661	1376.099586787283	378.809419074351	569.144355504380	382.898282606954	332.669728272707	546.394399575294	997.075731016181	533.475670503269	612.221337768539	491.939828920263	344.136164161796	553.728153515884	657.833538091151	258.180499297290	633.705888417693	610.243726591281	321.943255236489	
